<?xml version="1.0" encoding="UTF-8"?>
<svg id="Layer_1" data-name="Layer 1" xmlns="http://www.w3.org/2000/svg" xmlns:xlink="http://www.w3.org/1999/xlink" viewBox="0 0 479.11 500">
  <defs>
    <style>
      .cls-1 {
        stroke: #4b739e;
        stroke-linecap: round;
        stroke-linejoin: round;
        stroke-width: 1.35px;
      }

      .cls-1, .cls-2 {
        fill: none;
      }

      .cls-3 {
        fill: #4d6196;
      }

      .cls-3, .cls-4, .cls-5, .cls-6, .cls-7, .cls-2, .cls-8, .cls-9, .cls-10, .cls-11, .cls-12, .cls-13, .cls-14, .cls-15, .cls-16, .cls-17, .cls-18, .cls-19, .cls-20, .cls-21, .cls-22, .cls-23, .cls-24, .cls-25, .cls-26, .cls-27, .cls-28, .cls-29, .cls-30, .cls-31, .cls-32, .cls-33, .cls-34, .cls-35, .cls-36, .cls-37, .cls-38, .cls-39, .cls-40, .cls-41, .cls-42, .cls-43, .cls-44, .cls-45, .cls-46, .cls-47, .cls-48, .cls-49, .cls-50 {
        stroke-width: 0px;
      }

      .cls-4 {
        fill: #ffbf21;
      }

      .cls-5 {
        fill: #ff1b1f;
      }

      .cls-6 {
        fill: #30c3ff;
      }

      .cls-7 {
        fill: #61b9ff;
      }

      .cls-51 {
        clip-path: url(#clippath);
      }

      .cls-8 {
        fill: #eb9399;
      }

      .cls-9 {
        fill: #c28702;
      }

      .cls-10 {
        fill: #89dec9;
      }

      .cls-11 {
        fill: #ffdcba;
      }

      .cls-12 {
        fill: #ff91ac;
      }

      .cls-13 {
        fill: #7684ad;
      }

      .cls-14 {
        fill: #6a6f8c;
      }

      .cls-15 {
        fill: #d9a823;
      }

      .cls-16 {
        fill: #007f24;
      }

      .cls-17 {
        fill: #e5ab4a;
      }

      .cls-18 {
        fill: #2ec4ff;
      }

      .cls-19 {
        fill: #5fa9d1;
        isolation: isolate;
        opacity: .15;
      }

      .cls-20 {
        fill: #768fc7;
      }

      .cls-21 {
        fill: #abbacb;
      }

      .cls-52 {
        clip-path: url(#clippath-1);
      }

      .cls-22 {
        fill: #3173cc;
      }

      .cls-23 {
        fill: #ffa0a6;
      }

      .cls-24 {
        fill: #90c5e8;
      }

      .cls-25 {
        fill: #b5deff;
      }

      .cls-26 {
        fill: #637dc2;
      }

      .cls-27 {
        fill: #44b8a2;
      }

      .cls-28 {
        fill: #beccde;
      }

      .cls-29 {
        fill: #ffc129;
      }

      .cls-30 {
        fill: #4686b7;
      }

      .cls-31 {
        fill: #ffbe1d;
      }

      .cls-32 {
        fill: #00a02d;
      }

      .cls-33 {
        fill: #cb9d93;
      }

      .cls-34 {
        fill: #c5cceb;
      }

      .cls-35 {
        fill: #7a91cf;
      }

      .cls-36 {
        fill: #de171b;
      }

      .cls-37 {
        fill: #ffcf59;
      }

      .cls-38 {
        fill: #dea61d;
      }

      .cls-39 {
        fill: #27a7d9;
      }

      .cls-40 {
        fill: #8a7453;
      }

      .cls-41 {
        fill: #3b81e3;
      }

      .cls-42 {
        fill: #a2addb;
      }

      .cls-43 {
        fill: #0d3c6e;
      }

      .cls-44 {
        fill: #4b8cb7;
      }

      .cls-45 {
        fill: #53a1db;
      }

      .cls-46 {
        fill: #40517d;
      }

      .cls-47 {
        fill: #576eab;
      }

      .cls-48 {
        fill: #50b89d;
      }

      .cls-49 {
        fill: #fff;
      }

      .cls-50 {
        fill: #ffe045;
      }
    </style>
    <clipPath id="clippath">
      <path class="cls-2" d="M76.3,245.71c-.02,6.3,9.59,11.43,21.45,11.46,11.86.03,21.49-5.05,21.51-11.35,0-1.51,50.1-28.79,49.1-30.11-3.17-4.2-30.74-60.1-74.67-63.45-43.73-3.34-68.53,54.42-70.8,59.43-.39.85,53.41,33.11,53.41,34.02Z"/>
    </clipPath>
    <clipPath id="clippath-1">
      <path class="cls-2" d="M425.53,276.08c-.02,6.3-9.65,11.38-21.51,11.35-11.86-.03-21.46-5.16-21.45-11.46,0-1.51-49.95-29.04-48.95-30.35,3.19-4.18,31.05-59.94,74.99-63.08,43.75-3.12,68.25,54.77,70.5,59.79.38.85-53.58,32.83-53.58,33.75Z"/>
    </clipPath>
  </defs>
  <ellipse class="cls-19" cx="49.24" cy="371.16" rx="51.53" ry="23.08" transform="translate(-119.8 37.08) rotate(-19.28)"/>
  <ellipse class="cls-19" cx="200.29" cy="469.13" rx="74.99" ry="30.87"/>
  <path class="cls-19" d="M133.71,287.52c-.03,9.98-17.1,18.03-38.13,17.98-21.03-.05-38.06-8.19-38.03-18.17s17.1-18.03,38.13-17.98c21.03.05,38.06,8.19,38.03,18.17Z"/>
  <g>
    <g>
      <path class="cls-28" d="M124.6,246.01l-.09,34.97c-.02,8.05-12.04,14.55-26.85,14.51-14.81-.04-26.8-6.6-26.78-14.65l.09-34.97,53.63.14Z"/>
      <path class="cls-21" d="M105.59,245.96l-.12,48.92c11.01-1.79,19.03-7.33,19.04-13.9l.09-34.97-19.01-.05Z"/>
      <path class="cls-49" d="M70.96,245.88c-.02,8.05,11.97,14.61,26.78,14.65,14.81.04,26.83-6.46,26.85-14.51.02-8.05-11.97-14.61-26.78-14.65-14.81-.04-26.83,6.46-26.85,14.51Z"/>
      <path class="cls-21" d="M76.3,245.71c-.02,6.3,9.59,11.43,21.45,11.46,11.86.03,21.49-5.05,21.51-11.35.02-6.3-9.59-11.43-21.45-11.46-11.86-.03-21.49,5.05-21.51,11.35Z"/>
      <path class="cls-40" d="M97.79,241.82c-9.4-.02-17.37,3.17-20.3,7.62,2.9,4.47,10.86,7.7,20.26,7.72,9.4.02,17.37-3.16,20.3-7.62-2.9-4.47-10.86-7.7-20.26-7.72Z"/>
    </g>
    <g class="cls-51">
      <g>
        <path class="cls-10" d="M97.58,269.61s-14.14-77.82-46.4-77.9c-8.62-.02-38.53,18.9,12.15,41.03,28.08,12.26,34.25,36.87,34.25,36.87Z"/>
        <path class="cls-10" d="M97.58,269.61c-3.13-14.08-1.34-76.8,41.46-77.68,8.61-.18,42.91,17.44-7.49,40.22-31.24,14.12-32.84,30.58-33.97,37.46Z"/>
        <path class="cls-10" d="M97.58,269.61s-12.55-53.56-31.39-78.86c-18.84-25.3,29.87-38.16,37.05,1.09,1.99,10.87,1.18,24.41-1.26,38.89-4.32,25.65-4.4,38.88-4.4,38.88Z"/>
        <path class="cls-27" d="M97.58,269.61c-.4-6.78-2.33-13.31-4.92-19.46-2.62-6.16-6.15-11.87-10.18-17.18l-3.21-3.84c-1.03-1.32-2.29-2.43-3.42-3.66-2.25-2.48-4.81-4.64-7.3-6.89-1.2-1.18-2.57-2.15-3.89-3.19l-3.96-3.14c-2.73-1.97-5.55-3.84-8.28-5.88,1.52.74,3.03,1.53,4.53,2.33,1.49.81,3.05,1.54,4.5,2.43l4.27,2.83c1.4.97,2.88,1.86,4.16,3,2.63,2.19,5.36,4.28,7.69,6.82l1.82,1.83c.62.6,1.21,1.22,1.73,1.9l3.27,3.99c4.13,5.5,7.58,11.54,9.93,18,2.32,6.44,3.72,13.31,3.27,20.11Z"/>
        <path class="cls-27" d="M82.03,179.97c3.96,6.16,6.91,12.94,9.28,19.88,2.37,6.95,4.13,14.1,5.37,21.34.29,1.81.52,3.63.78,5.45l.38,2.73.23,2.74.45,5.48.16,5.5.08,2.75c.01.92-.04,1.83-.06,2.75l-.17,5.49c-.04,1.83-.3,3.65-.44,5.47-.16,1.82-.35,3.64-.55,5.45-.1-3.66.05-7.3-.08-10.94-.19-3.64-.16-7.27-.51-10.89l-.4-5.43-.6-5.4c-.19-1.8-.41-3.6-.7-5.39-.28-1.79-.52-3.59-.82-5.37-1.26-7.13-2.87-14.2-4.89-21.16-2.07-6.94-4.37-13.85-7.51-20.45Z"/>
        <path class="cls-27" d="M137.85,203.19c-6.32,2.69-11.98,6.59-17.03,11.06-5.01,4.52-9.35,9.77-12.75,15.6-3.37,5.84-5.9,12.19-7.56,18.78-1.65,6.6-2.56,13.4-2.91,20.25-.35-6.86.1-13.8,1.51-20.58,1.33-6.8,3.74-13.41,7.17-19.49,3.45-6.05,7.93-11.56,13.33-15.98,5.37-4.4,11.56-7.93,18.24-9.65Z"/>
      </g>
    </g>
  </g>
  <ellipse class="cls-19" cx="403.55" cy="318.41" rx="18.07" ry="38.08" transform="translate(84.13 721.17) rotate(-89.86)"/>
  <g>
    <g>
      <path class="cls-28" d="M377.24,276.14l-.09,34.97c-.02,8.05,11.97,14.61,26.78,14.65,14.81.04,26.83-6.46,26.85-14.51l.09-34.97-53.63-.14Z"/>
      <path class="cls-21" d="M396.25,276.19l-.12,48.92c-11-1.85-18.99-7.42-18.97-14l.09-34.97,19.01.05Z"/>
      <path class="cls-49" d="M430.87,276.28c-.02,8.05-12.04,14.55-26.85,14.51-14.81-.04-26.8-6.6-26.78-14.65.02-8.05,12.04-14.55,26.85-14.51,14.81.04,26.8,6.6,26.78,14.65Z"/>
      <path class="cls-21" d="M425.53,276.08c-.02,6.3-9.65,11.38-21.51,11.35-11.86-.03-21.46-5.16-21.45-11.46.02-6.3,9.64-11.38,21.51-11.35,11.86.03,21.47,5.16,21.45,11.46Z"/>
      <path class="cls-40" d="M404.06,272.09c9.4.02,17.36,3.25,20.26,7.72-2.92,4.45-10.9,7.64-20.3,7.62-9.4-.02-17.36-3.25-20.26-7.72,2.93-4.45,10.9-7.64,20.3-7.62Z"/>
    </g>
    <g class="cls-52">
      <g>
        <path class="cls-10" d="M404.13,299.87s14.53-77.75,46.79-77.67c8.62.02,38.44,19.09-12.36,40.97-28.14,12.12-34.43,36.7-34.43,36.7Z"/>
        <path class="cls-10" d="M404.13,299.87c3.2-14.07,1.73-76.79-41.07-77.89-8.61-.22-43,17.22,7.28,40.25,31.17,14.28,32.68,30.75,33.78,37.64Z"/>
        <path class="cls-10" d="M404.13,299.87s12.82-53.5,31.79-78.7c18.97-25.2-29.67-38.31-37.05.9-2.04,10.86-1.3,24.4,1.06,38.89,4.19,25.67,4.2,38.9,4.2,38.9Z"/>
        <path class="cls-48" d="M404.13,299.87c-.42-6.8,1.02-13.66,3.37-20.09,2.39-6.45,5.86-12.47,10.02-17.95l3.29-3.97c.53-.68,1.12-1.3,1.74-1.89l1.83-1.82c2.34-2.53,5.08-4.61,7.72-6.79,1.29-1.13,2.77-2.01,4.18-2.97l4.28-2.81c1.46-.89,3.02-1.61,4.51-2.41,1.51-.79,3.02-1.57,4.55-2.31-2.75,2.03-5.57,3.88-8.31,5.84l-3.98,3.12c-1.32,1.04-2.7,2-3.91,3.17-2.5,2.24-5.07,4.39-7.34,6.85-1.14,1.22-2.41,2.33-3.44,3.64l-3.23,3.83c-4.06,5.29-7.62,10.98-10.27,17.13-2.62,6.13-4.59,12.65-5.02,19.43Z"/>
        <path class="cls-48" d="M420.14,210.32c-3.17,6.58-5.51,13.48-7.61,20.41-2.05,6.95-3.7,14.01-5,21.14-.32,1.78-.56,3.58-.85,5.37-.3,1.79-.53,3.58-.73,5.39l-.63,5.4-.42,5.43c-.36,3.62-.35,7.25-.56,10.89-.15,3.64-.02,7.28-.14,10.94-.19-1.81-.37-3.63-.52-5.45-.13-1.82-.38-3.64-.41-5.47l-.15-5.49c-.01-.92-.06-1.83-.05-2.75l.09-2.75.19-5.5.48-5.48.25-2.74.39-2.72c.27-1.81.51-3.64.81-5.45,1.27-7.23,3.08-14.37,5.48-21.31,2.41-6.93,5.39-13.7,9.38-19.84Z"/>
        <path class="cls-48" d="M364.2,233.25c6.68,1.76,12.84,5.31,18.2,9.74,5.37,4.45,9.82,9.98,13.25,16.05,3.4,6.09,5.78,12.72,7.07,19.52,1.37,6.79,1.79,13.73,1.4,20.58-.32-6.86-1.19-13.67-2.81-20.27-1.63-6.6-4.12-12.95-7.46-18.82-3.37-5.85-7.69-11.11-12.67-15.66-5.02-4.5-10.66-8.42-16.97-11.15Z"/>
      </g>
    </g>
  </g>
  <g>
    <polygon class="cls-35" points="169.63 292.57 257.53 343.64 257.85 216.54 169.95 165.5 169.63 292.57"/>
    <polygon class="cls-3" points="197.62 195.81 224.97 211.69 224.93 227.49 197.59 211.62 197.62 195.81"/>
    <polygon class="cls-46" points="200.57 209.67 224.94 223.81 224.97 211.69 200.6 197.53 200.57 209.67"/>
    <polygon class="cls-26" points="169.63 292.59 257.53 343.66 257.64 302.09 169.74 251.04 169.63 292.59"/>
    <polygon class="cls-35" points="280.22 76.84 192.34 25.29 236.4 0 324.31 51.53 280.22 76.84"/>
    <g>
      <path class="cls-20" d="M178.43,160.88l17.2-107.69,72.64,42.19s-17.08,65.44-17.24,107.67l-72.6-42.16Z"/>
      <path class="cls-13" d="M213.46,139.9l-35.03,20.98,72.6,42.16c.05-11.93,1.44-25.71,3.42-39.34l-40.99-23.8Z"/>
      <path class="cls-35" d="M213.46,139.9l.19-76.24-18.03-10.47s-15.91,71.6-17.2,107.69l35.03-20.98Z"/>
      <path class="cls-6" d="M216.28,55.19s-15.7,30.69-17.85,93.72l55.25,32.12,18.4-91.03-55.8-34.81Z"/>
      <polygon class="cls-34" points="178.43 160.88 199.39 131.71 260.08 166.96 251.03 203.04 178.43 160.88"/>
    </g>
    <g>
      <g>
        <polygon class="cls-38" points="212.33 149.92 215.84 144.88 207.42 139.96 203.94 145 212.33 149.92"/>
        <polygon class="cls-14" points="219.7 154.24 223.24 149.2 217.48 145.84 213.96 150.87 219.7 154.24"/>
        <polygon class="cls-14" points="227.21 158.64 230.78 153.61 224.99 150.22 221.44 155.26 227.21 158.64"/>
        <polygon class="cls-14" points="234.75 163.06 238.35 158.03 232.53 154.63 228.96 159.66 234.75 163.06"/>
        <polygon class="cls-14" points="242.32 167.5 245.94 162.47 240.11 159.06 236.5 164.09 242.32 167.5"/>
        <polygon class="cls-36" points="207.94 156.2 211.43 151.2 203.05 146.28 199.59 151.29 207.94 156.2"/>
        <polygon class="cls-14" points="215.28 160.53 218.8 155.53 213.06 152.16 209.56 157.16 215.28 160.53"/>
        <polygon class="cls-14" points="222.75 164.93 226.3 159.93 220.54 156.55 217.01 161.55 222.75 164.93"/>
        <polygon class="cls-14" points="230.26 169.34 233.83 164.35 228.04 160.95 224.49 165.95 230.26 169.34"/>
        <polygon class="cls-14" points="237.79 173.78 241.39 168.78 235.58 165.38 232 170.37 237.79 173.78"/>
        <polygon class="cls-16" points="203.58 162.45 207.05 157.48 198.7 152.57 195.27 157.54 203.58 162.45"/>
        <polygon class="cls-14" points="210.89 166.77 214.38 161.8 208.67 158.44 205.2 163.41 210.89 166.77"/>
        <polygon class="cls-14" points="218.33 171.17 221.85 166.2 216.11 162.83 212.61 167.79 218.33 171.17"/>
        <polygon class="cls-14" points="225.79 175.59 229.34 170.62 223.59 167.23 220.06 172.19 225.79 175.59"/>
        <polygon class="cls-14" points="233.3 180.02 236.87 175.06 231.09 171.65 227.53 176.61 233.3 180.02"/>
        <polygon class="cls-14" points="199.25 168.66 202.69 163.72 194.39 158.81 190.97 163.75 199.25 168.66"/>
        <polygon class="cls-14" points="206.52 172.98 209.99 168.04 204.31 164.68 200.86 169.61 206.52 172.98"/>
        <polygon class="cls-14" points="213.93 177.37 217.42 172.44 211.72 169.06 208.24 174 213.93 177.37"/>
        <polygon class="cls-14" points="221.36 181.79 224.89 176.85 219.16 173.46 215.65 178.4 221.36 181.79"/>
        <polygon class="cls-14" points="228.83 186.22 232.38 181.29 226.63 177.88 223.1 182.81 228.83 186.22"/>
      </g>
      <g>
        <polygon class="cls-4" points="211.72 149.53 215.23 144.5 206.81 139.58 203.33 144.62 211.72 149.53"/>
        <polygon class="cls-13" points="219.09 153.86 222.63 148.82 216.87 145.45 213.35 150.49 219.09 153.86"/>
        <polygon class="cls-13" points="226.59 158.26 230.16 153.22 224.37 149.84 220.83 154.88 226.59 158.26"/>
        <polygon class="cls-13" points="234.13 162.68 237.72 157.64 231.91 154.25 228.34 159.28 234.13 162.68"/>
        <polygon class="cls-13" points="241.7 167.11 245.32 162.08 239.48 158.67 235.88 163.7 241.7 167.11"/>
        <polygon class="cls-5" points="207.33 155.82 210.82 150.82 202.44 145.91 198.98 150.91 207.33 155.82"/>
        <polygon class="cls-13" points="214.67 160.14 218.18 155.14 212.45 151.78 208.95 156.78 214.67 160.14"/>
        <polygon class="cls-13" points="222.14 164.54 225.68 159.54 219.92 156.16 216.4 161.17 222.14 164.54"/>
        <polygon class="cls-13" points="229.64 168.96 233.21 163.96 227.43 160.57 223.88 165.57 229.64 168.96"/>
        <polygon class="cls-13" points="237.17 173.39 240.77 168.4 234.96 164.99 231.39 169.99 237.17 173.39"/>
        <polygon class="cls-32" points="202.97 162.07 206.44 157.1 198.1 152.19 194.66 157.16 202.97 162.07"/>
        <polygon class="cls-13" points="210.28 166.39 213.77 161.42 208.06 158.06 204.59 163.03 210.28 166.39"/>
        <polygon class="cls-13" points="217.71 170.79 221.23 165.82 215.5 162.44 212 167.41 217.71 170.79"/>
        <polygon class="cls-13" points="225.18 175.2 228.73 170.24 222.97 166.85 219.44 171.81 225.18 175.2"/>
        <polygon class="cls-13" points="232.68 179.63 236.25 174.67 230.47 171.26 226.92 176.23 232.68 179.63"/>
        <polygon class="cls-13" points="198.64 168.28 202.09 163.34 193.78 158.43 190.37 163.37 198.64 168.28"/>
        <polygon class="cls-13" points="205.92 172.59 209.38 167.66 203.7 164.3 200.25 169.23 205.92 172.59"/>
        <polygon class="cls-13" points="213.32 176.99 216.81 172.06 211.11 168.68 207.63 173.61 213.32 176.99"/>
        <polygon class="cls-13" points="220.75 181.4 224.27 176.47 218.54 173.08 215.04 178.01 220.75 181.4"/>
        <polygon class="cls-13" points="228.21 185.83 231.76 180.9 226.01 177.5 222.48 182.43 228.21 185.83"/>
      </g>
    </g>
    <path class="cls-42" d="M192.34,25.29s-22.3,105.83-22.39,140.21l87.9,51.05,22.37-139.71-87.88-51.55ZM251.03,203.04l-72.6-42.16,17.2-107.69,72.64,42.19s-17.08,65.44-17.24,107.67Z"/>
    <path class="cls-47" d="M257.53,343.64l66.13-37.96.64-254.15-44.08,25.3s-22.25,90.9-22.37,139.71c-.09,35.46-.32,127.1-.32,127.1Z"/>
  </g>
  <g>
    <path class="cls-19" d="M211.54,356.73c-.03,9.95-20.09,17.96-44.82,17.9-24.73-.06-44.76-8.18-44.73-18.12.03-9.95,20.09-17.96,44.82-17.89,24.73.06,44.76,8.17,44.73,18.12Z"/>
    <g>
      <g>
        <path class="cls-24" d="M163.06,334c-3-1.93-4.44-.45-11.69,5.88-5.4,4.72-7.17,4.91-9.33,6.8-.88,1.61-1.11,3.43-1.1,5.24.02,2.31-.59,4.63,1.91,5.82,2.02.96,5.33,1.6,7.27.18,2.29-1.67,3.93-5.93,6.79-8.8,4.94-4.94,10.83-12.08,6.13-15.12Z"/>
        <path class="cls-25" d="M162.65,333.32c-3-1.93-4.02-1.44-11.27,4.89-5.4,4.72-7.17,4.91-9.33,6.8-.88,1.61-1.11,3.43-1.1,5.24.02,2.31-.59,4.63,1.91,5.82,2.02.96,5.33,1.6,7.27.18,2.29-1.67,3.93-5.93,6.79-8.8,4.94-4.94,10.41-11.09,5.72-14.13Z"/>
        <path class="cls-12" d="M149.49,347.84c-1.31.45-3.69.96-5.93-.08-.42-.19-.69-.62-.76-1.07-.2-1.42-.52-4.73.14-8.14,1.99-1.33,8.65.02,8.65.02,0,0,.29,4.82-.73,7.95-.21.64-.74,1.11-1.37,1.32Z"/>
        <path class="cls-22" d="M143.77,207.61c2.85.38,24.82,9.3,24.82,9.3-.66,10.2-5.01,54.9-6.76,67.61-1.67,12.09-5.86,55.36-5.86,55.36-5.75,6.12-15.46,1.57-15.46,1.57,0,0-2.22-49.27-.54-63.47.77-6.52,1.15-12.19,1.8-18.58.55-5.48,1.57-11.75.06-16.66-4.97-16.15-1.34-26,1.95-35.12Z"/>
      </g>
      <g>
        <g>
          <path class="cls-25" d="M163.71,353.03c4.16,1.11,5.44.1,9.08-2.07,3.02.12,20.7-6.89,22.87-.98,1.9,5.18-5.24,9.88-9.04,10.76-8.29,1.92-14.45,5.99-17.78,6.65-2.48.5-5.69.81-7.64-1.16-2.34-2.36-1.73-12.12,2.51-13.21Z"/>
          <path class="cls-12" d="M171.03,356.27c-1.31.44-4.03,1.07-6.27.03-.42-.19-.69-.62-.76-1.07-.2-1.42-.81-3.41-.43-7.28,1.99-1.33,9.17-.01,9.17-.01,0,0,.19,3.8-.35,7.01-.11.66-.74,1.11-1.37,1.32Z"/>
          <path class="cls-24" d="M168.85,365.96c3.33-.67,9.49-4.73,17.78-6.65,3.18-.74,8.69-4.16,9.28-8.29.69,4.76-5.75,8.9-9.3,9.72-8.29,1.92-14.45,5.99-17.78,6.65-2.48.5-5.69.81-7.64-1.16-.45-.46-.81-1.15-1.06-1.99,2.85,2.42,6.24,2.21,8.72,1.72Z"/>
        </g>
        <path class="cls-41" d="M148.64,211.49c2.85.38,36.68,6.19,36.68,6.19,3.26,31.07-.75,64.87-2.51,77.59-1.67,12.09-5.85,53.18-5.85,53.18-5.75,6.13-15.46,1.57-15.46,1.57,0,0-2.23-47.1-.55-61.3,1.56-13.23.07-32.31-6.95-43.84-5.42-8.9-6.87-22.01-5.36-33.38Z"/>
      </g>
      <g>
        <path class="cls-8" d="M137.62,181.45c1.38-4.97,3.57-9.99,5.95-14.53,1.38-4.13,11.08-13.28,12.36-14.2l2.87-19.83s-9.06-8.67-19.89,9.44c-8.7,14.55-14.41,31.63-16.18,39.13-.46,1.95-.51,4.43,1.48,7.27,3.95,5.63,11.19,12.01,24.44,14.34l.65-10.64c-1.6-.88-12.51-7.99-11.68-10.98Z"/>
        <path class="cls-39" d="M153.64,168.59l5.16-35.7s-9.06-8.67-19.89,9.44c-2.16,3.61-4.14,7.39-5.91,11.13,5.9,5.98,13.04,10.83,20.64,15.13Z"/>
      </g>
      <g>
        <path class="cls-18" d="M185.19,222.98c7.49-29.59,9.08-72.02,4.98-75.62-6.59-5.79-14.58-10.3-22.61-13.58-5.14-2.1-10.68-3.45-15.58-2.21-5.26,1.33-8.78,10.32-9.15,15.73-.77,11.49-3.69,36.31-1.1,65.86,12.42,14.03,24.5,16.8,43.46,9.82Z"/>
        <path class="cls-23" d="M154.6,100.89c2.85-5.17,8.21-8.19,14.46-7.83,5.58.32,11.55,3.24,13.38,8.86,2.39,7.32,4.81,16.31,1.11,23.41-12.02,23.07-33.52-16.19-28.96-24.44Z"/>
        <path class="cls-8" d="M162.33,121.93c.02-.54.4-.94.72-.63,2.49,2.36,9.11,2.17,9.1,2.73,0,0,1.1,11.91,1.08,14.29-4.46,4.65-11.62,4.39-11.83-.24-.26-5.6.78-12.69.93-16.14Z"/>
        <path class="cls-43" d="M171.8,117.58c-.94-1.27-2.58-2.08-4.12-1.99-1.73.1-3.41,1.74-2.85,3.56.75,2.44,4.3,3.45,6.89,2.77-.03,1.73-.05,3.08-.06,3.38-.02.55-.09,1.13-.28,1.65-3.61,2.08-8.32,3.12-12.54,2.32-.33-.52-.63-1.05-.9-1.47-1.05-1.67-2.4-3.14-3.7-4.62-1.29-1.46-2.29-2.81-3.1-4.59-1.54-3.34-2.34-7.06-2.25-10.74.05-2,.36-4,1.03-5.89.55-1.57,1.37-3.04,2.43-4.31,3.45-4.13,8.91-7.16,14.42-6.62.06,0,.1.03.15.05-1.1.05,9.23-1.95,17.14-2.38,6.42-.35,3.53,5.02,2.1,11.83-1.36,6.46-7.93,10.09-14.18,10.61-.06,0-.13,3.12-.2,6.44Z"/>
      </g>
      <g>
        <path class="cls-23" d="M191.31,149.51l.98,47.94,27.91-14.87s6.83-.15,5.04,6.43c-14.65,13.45-26.49,23.63-36.41,27.47-3.12,1.21-6.57-.68-7.25-3.96l-8.02-48.97s-.76-7.1,5.01-14.07c5.77-6.97,12.74.03,12.74.03Z"/>
        <g>
          <path class="cls-23" d="M220.51,184.66l1.75,3.63c.77,1.24,1.23,1.32,3.61.7l3.4-1.7,3-2.2c2.35-1.69.7-2.43-.09-3.4l-3.34-4.09c-.73-.89-1.43-1.95-2.35-1.26l-5.3,4.79c-1.11.82-1.41,2.36-.68,3.54Z"/>
          <path class="cls-23" d="M241.93,182.23c-1.88.17-3.84.48-5.65.97-.91.25-1.8.53-2.6.9-.8.36-1.53.8-2.01,1.28-.69.69-1.81.69-2.51,0-.69-.69-.69-1.81,0-2.51.05-.05.1-.1.16-.14l.03-.02c1.05-.82,2.13-1.26,3.19-1.62,1.06-.35,2.11-.57,3.15-.73,2.09-.33,4.12-.43,6.22-.39.63.01,1.13.53,1.11,1.15-.01.58-.46,1.06-1.03,1.11h-.05Z"/>
          <path class="cls-23" d="M242.19,178.13c-.97.07-2.04.23-3.03.43-1.01.21-2,.48-2.94.82-1.88.68-3.58,1.7-4.67,3.03-.62.76-1.73.88-2.49.26s-.88-1.73-.26-2.49c.04-.05.09-.1.13-.14,1.89-1.87,4.2-2.84,6.44-3.43,1.13-.29,2.26-.48,3.4-.6,1.14-.12,2.24-.18,3.43-.14.63.02,1.12.54,1.1,1.17-.02.59-.48,1.06-1.05,1.1h-.06Z"/>
          <path class="cls-23" d="M241.04,175.84c-.97.07-2.04.23-3.03.43-1.01.21-2,.48-2.94.82-1.88.68-3.58,1.7-4.67,3.03-.62.76-1.73.88-2.49.26s-.88-1.73-.26-2.49c.04-.05.09-.1.13-.14,1.89-1.87,4.2-2.84,6.44-3.43,1.13-.29,2.26-.48,3.4-.6,1.14-.12,2.24-.18,3.43-.14.63.02,1.12.54,1.1,1.17-.02.59-.48,1.06-1.05,1.1h-.06Z"/>
          <path class="cls-23" d="M237.67,173.88c-.94.24-1.96.59-2.91.97-.95.39-1.88.83-2.74,1.34-1.73,1.01-3.22,2.32-4.04,3.82-.47.86-1.54,1.18-2.4.71s-1.18-1.54-.71-2.4c.03-.06.07-.11.1-.17,1.52-2.18,3.61-3.56,5.71-4.54,1.06-.49,2.14-.88,3.23-1.21,1.1-.32,2.17-.58,3.35-.76.62-.1,1.2.33,1.29.95.09.58-.28,1.12-.83,1.27h-.06Z"/>
          <path class="cls-23" d="M220.68,181.37c-.02-.53.03-.68.07-.99.05-.26.11-.51.19-.73.14-.47.34-.89.55-1.29.43-.79.97-1.46,1.55-2.04.57-.59,1.21-1.05,1.85-1.48.64-.41,1.31-.76,1.97-1.07.53-.25,1.16-.02,1.41.51.2.43.09.93-.25,1.24l-.04.03c-.48.43-.94.88-1.34,1.34-.38.48-.75.95-1,1.46-.26.5-.45,1-.54,1.47-.04.24-.06.46-.05.67,0,.1.02.2.03.28.01.04.05.23.06.04.15,1.23-.72,2.36-1.95,2.51-1.23.15-2.36-.72-2.51-1.95Z"/>
        </g>
        <path class="cls-18" d="M176.13,179.2c2.77-1.07,12.69-3.71,16.23-5.34l-1.04-24.35s-6.96-7-12.74-.03c-5.77,6.97-5.01,14.07-5.01,14.07l2.56,15.65Z"/>
      </g>
    </g>
  </g>
  <g>
    <polygon class="cls-19" points="386.7 456.82 376.79 462.54 250.77 389.45 260.69 383.73 386.7 456.82"/>
    <polygon class="cls-19" points="476.14 475 466.23 480.72 340.21 407.63 350.13 401.92 476.14 475"/>
    <g>
      <g>
        <path class="cls-33" d="M474.41,366.79l-121.42-70.46c-1.34-.78-2.85-.67-4.02.03h0s-4.67,3.09-4.67,3.09l2.66,2.1.06-.04-.25,97.99c0,1.42.75,2.73,1.98,3.45l119.51,69.26,3.52,5.09,4.02-2.71v-.02c1.29-.62,2.27-1.91,2.27-3.55l.25-97.41c0-2.8-1.48-5.4-3.91-6.8Z"/>
        <path class="cls-11" d="M344.38,405.85l123.36,71.49c2.64,1.53,5.95-.37,5.96-3.42l.25-97.41c0-2.8-1.48-5.4-3.91-6.81l-121.42-70.45c-2.64-1.53-5.96.37-5.96,3.42l-.25,99.74c0,1.42.75,2.73,1.98,3.45Z"/>
        <path class="cls-17" d="M350.05,331.13l22.7,13.16c.49.28,1.1-.07,1.1-.63l.05-17.93c0-.52-.27-.99-.72-1.25l-22.35-12.97c-.49-.28-1.1.07-1.1.63l-.05,18.36c0,.26.14.5.37.63Z"/>
        <polygon class="cls-44" points="357.25 359.9 453.73 417.13 453.75 408.56 357.27 351.31 357.25 359.9"/>
        <polygon class="cls-44" points="391.73 396.84 416.93 411.81 416.95 403.23 391.75 388.25 391.73 396.84"/>
        <polygon class="cls-44" points="440.27 374.68 465.46 389.65 465.49 381.07 440.29 366.09 440.27 374.68"/>
      </g>
      <g>
        <path class="cls-33" d="M386.19,348.31l-121.42-70.45c-1.34-.78-2.85-.67-4.02.03h0s-4.67,3.09-4.67,3.09l2.66,2.1.06-.04-.25,97.99c0,1.42.75,2.73,1.98,3.45l119.51,69.26,3.52,5.09,4.02-2.71v-.02c1.29-.62,2.27-1.91,2.27-3.55l.25-97.41c0-2.8-1.48-5.4-3.91-6.81Z"/>
        <path class="cls-11" d="M256.16,387.36l123.36,71.49c2.64,1.53,5.95-.37,5.96-3.43l.25-97.41c0-2.8-1.48-5.4-3.91-6.81l-121.42-70.46c-2.64-1.53-5.96.37-5.96,3.42l-.25,99.74c0,1.42.75,2.73,1.98,3.45Z"/>
        <path class="cls-17" d="M261.83,312.65l22.7,13.16c.49.28,1.1-.07,1.1-.63l.05-17.93c0-.52-.27-.99-.72-1.25l-22.35-12.97c-.49-.28-1.1.07-1.1.63l-.05,18.36c0,.26.14.5.37.63Z"/>
        <polygon class="cls-44" points="269.03 341.42 365.51 398.65 365.53 390.07 269.05 332.83 269.03 341.42"/>
        <polygon class="cls-44" points="303.51 378.36 328.7 393.32 328.72 384.75 303.53 369.76 303.51 378.36"/>
        <polygon class="cls-44" points="352.04 356.2 377.24 371.17 377.26 362.59 352.07 347.61 352.04 356.2"/>
      </g>
    </g>
  </g>
  <g>
    <g>
      <g>
        <g>
          <path class="cls-31" d="M195.3,472.25c-15.3,8.78-40.06,8.72-55.31-.14-15.25-8.86-15.22-23.16.08-31.94,15.3-8.77,40.06-8.71,55.31.14,15.25,8.86,15.22,23.15-.08,31.94Z"/>
          <path class="cls-37" d="M195.31,466.75c-15.3,8.79-40.06,8.72-55.31-.14-15.25-8.86-15.22-23.16.08-31.94,15.3-8.78,40.06-8.72,55.31.14,15.25,8.86,15.22,23.16-.08,31.94Z"/>
          <path class="cls-50" d="M167.65,467.78c-8.47-.02-16.73-2-22.66-5.45-5.5-3.2-8.66-7.46-8.65-11.7.01-4.24,3.18-8.49,8.7-11.66,5.94-3.41,14.21-5.35,22.68-5.33,8.48.02,16.74,2,22.66,5.44,5.5,3.2,8.66,7.46,8.65,11.7s-3.18,8.49-8.7,11.66c-5.94,3.41-14.21,5.36-22.68,5.33Z"/>
          <path class="cls-15" d="M138.04,452.44c.01-4.24,3.18-8.49,8.7-11.66,5.94-3.41,14.21-5.35,22.68-5.33,8.48.02,16.74,2,22.66,5.44,1.68.97,3.11,2.05,4.32,3.2-1.46-1.82-3.47-3.53-6.01-5.01-5.92-3.44-14.18-5.42-22.66-5.44-8.48-.02-16.74,1.92-22.68,5.33-5.52,3.17-8.69,7.41-8.7,11.66,0,2.95,1.54,5.9,4.32,8.51-1.7-2.13-2.64-4.42-2.64-6.7Z"/>
        </g>
        <g>
          <path class="cls-9" d="M156.77,460.91l-4.36,2.97-3.16-2.08,4.2-2.78c-2.8-2-4.44-4.42-4.44-6.32v-1.25s5.89-.55,5.89-.55c.18,1.63,1.4,3.47,3.4,4.91l5.87-3.89c-2.58-2.38-5.06-5.03-.45-7.9,3.29-2.05,8.36-2.78,13.95-1.03l3.27-2.16,3.39.07v1.25s-3.22,2.19-3.22,2.19c2.07,1.02,5.48,3.12,5.48,3.12v1.25s-5.74,1.96-5.74,1.96c-.93-1.49-2.24-2.68-3.79-3.58l-5.47,3.73c3.01,2.48,6.25,5.61,1.3,9.23-3.82,2.8-10.01,3.62-16.11.86ZM169.07,448.67l4.53-3c-2.09-.52-3.67-.22-4.72.45-1.12.73-.78,1.57.19,2.55ZM166.63,457.2c1.24-.87.91-1.86-.03-2.99l-4.91,3.34c2.09.68,3.79.45,4.94-.35Z"/>
          <path class="cls-29" d="M156.77,459.66l-4.36,2.97-3.16-2.08,4.2-2.78c-2.8-2-4.44-4.42-4.44-6.32l5.89-1.8c.18,1.63,1.4,3.47,3.4,4.91l5.87-3.89c-2.58-2.38-5.06-5.03-.45-7.9,3.29-2.05,8.36-2.78,13.95-1.03l3.27-2.16,3.39,1.32-3.22,2.19c2.45,1.21,4.5,2.74,5.47,4.37l-5.73,1.96c-.93-1.49-2.24-2.68-3.79-3.58l-5.47,3.73c3.01,2.48,6.25,5.61,1.3,9.23-3.82,2.8-10.01,3.63-16.11.86ZM169.08,447.42l4.53-3c-2.09-.52-3.67-.22-4.72.45-1.12.73-.78,1.57.19,2.55ZM166.63,455.95c1.24-.87.91-1.86-.03-2.99l-4.91,3.34c2.09.68,3.79.45,4.94-.35Z"/>
        </g>
      </g>
      <g>
        <g>
          <path class="cls-31" d="M195.32,463.52c-15.3,8.78-40.06,8.72-55.31-.14-15.25-8.86-15.22-23.16.08-31.94,15.3-8.77,40.06-8.71,55.31.14,15.25,8.86,15.22,23.15-.08,31.94Z"/>
          <path class="cls-37" d="M195.34,458.01c-15.3,8.79-40.06,8.72-55.31-.14-15.25-8.86-15.22-23.16.08-31.94,15.3-8.78,40.06-8.72,55.31.14,15.25,8.86,15.22,23.16-.08,31.94Z"/>
          <path class="cls-50" d="M167.68,459.04c-8.47-.02-16.73-2-22.65-5.45-5.5-3.2-8.66-7.46-8.65-11.7.01-4.24,3.18-8.49,8.7-11.66,5.94-3.41,14.21-5.35,22.68-5.33,8.48.02,16.74,2,22.66,5.44,5.5,3.2,8.66,7.46,8.65,11.7s-3.18,8.49-8.7,11.66c-5.94,3.41-14.21,5.36-22.68,5.33Z"/>
          <path class="cls-15" d="M138.06,443.71c.01-4.24,3.18-8.49,8.7-11.66,5.94-3.41,14.21-5.35,22.68-5.33,8.48.02,16.74,2,22.66,5.44,1.68.97,3.11,2.05,4.32,3.2-1.46-1.82-3.47-3.53-6.01-5.01-5.92-3.44-14.18-5.42-22.66-5.44-8.48-.02-16.74,1.92-22.68,5.33-5.52,3.17-8.69,7.41-8.7,11.66,0,2.95,1.54,5.9,4.32,8.51-1.7-2.13-2.64-4.41-2.64-6.7Z"/>
        </g>
        <g>
          <path class="cls-9" d="M156.79,452.18l-4.36,2.97-3.16-2.08,4.2-2.78c-2.8-2-4.44-4.42-4.44-6.32v-1.25s5.89-.55,5.89-.55c.18,1.63,1.4,3.47,3.4,4.91l5.87-3.89c-2.58-2.38-5.06-5.03-.45-7.9,3.29-2.05,8.36-2.78,13.95-1.03l3.27-2.16,3.39.07v1.25s-3.22,2.19-3.22,2.19c2.07,1.02,5.48,3.12,5.48,3.12v1.25s-5.74,1.96-5.74,1.96c-.93-1.49-2.24-2.68-3.79-3.58l-5.47,3.73c3.01,2.48,6.25,5.61,1.3,9.23-3.82,2.8-10.01,3.63-16.12.86ZM169.09,439.94l4.53-3c-2.09-.52-3.67-.22-4.72.45-1.12.73-.78,1.57.19,2.55ZM166.65,448.47c1.24-.87.91-1.86-.03-2.99l-4.91,3.34c2.09.68,3.79.45,4.94-.35Z"/>
          <path class="cls-29" d="M156.79,450.92l-4.36,2.97-3.16-2.08,4.2-2.78c-2.8-2-4.44-4.42-4.44-6.32l5.89-1.8c.18,1.63,1.4,3.47,3.4,4.91l5.87-3.89c-2.58-2.38-5.06-5.03-.46-7.9,3.29-2.05,8.36-2.78,13.95-1.03l3.27-2.16,3.39,1.32-3.22,2.19c2.45,1.21,4.5,2.74,5.47,4.37l-5.73,1.96c-.93-1.49-2.24-2.68-3.79-3.58l-5.47,3.73c3.01,2.48,6.25,5.61,1.3,9.23-3.82,2.8-10.01,3.63-16.11.86ZM169.1,438.68l4.53-3c-2.09-.52-3.67-.22-4.72.45-1.12.72-.78,1.57.19,2.54ZM166.65,447.22c1.24-.87.91-1.86-.03-2.99l-4.91,3.34c2.09.68,3.79.45,4.94-.35Z"/>
        </g>
      </g>
      <g>
        <g>
          <path class="cls-31" d="M195.34,454.78c-15.3,8.78-40.06,8.72-55.31-.14-15.25-8.86-15.22-23.16.08-31.94,15.3-8.77,40.06-8.71,55.31.14,15.25,8.86,15.22,23.16-.08,31.94Z"/>
          <path class="cls-37" d="M195.36,449.28c-15.3,8.79-40.06,8.72-55.31-.14-15.25-8.86-15.22-23.16.08-31.94,15.3-8.78,40.06-8.72,55.31.14,15.25,8.86,15.21,23.16-.08,31.94Z"/>
          <path class="cls-50" d="M167.7,450.31c-8.47-.02-16.73-2-22.65-5.45-5.5-3.2-8.66-7.46-8.65-11.7.01-4.24,3.18-8.49,8.7-11.66,5.94-3.41,14.21-5.35,22.68-5.33,8.48.02,16.74,2,22.66,5.44,5.5,3.2,8.66,7.46,8.65,11.7s-3.18,8.49-8.7,11.66c-5.94,3.41-14.21,5.35-22.68,5.33Z"/>
          <path class="cls-15" d="M138.09,434.97c.01-4.24,3.18-8.49,8.7-11.66,5.94-3.41,14.21-5.35,22.68-5.33,8.48.02,16.74,2,22.66,5.44,1.68.97,3.11,2.05,4.32,3.2-1.46-1.82-3.47-3.53-6.01-5.01-5.92-3.44-14.18-5.42-22.66-5.44-8.48-.02-16.74,1.92-22.68,5.33-5.52,3.17-8.69,7.41-8.7,11.66,0,2.95,1.54,5.9,4.32,8.51-1.7-2.13-2.64-4.41-2.64-6.7Z"/>
        </g>
        <g>
          <path class="cls-9" d="M156.81,443.44l-4.36,2.97-3.16-2.08,4.2-2.78c-2.8-2-4.44-4.42-4.44-6.32v-1.25s5.89-.55,5.89-.55c.18,1.63,1.4,3.47,3.4,4.91l5.87-3.89c-2.58-2.38-5.06-5.03-.45-7.9,3.29-2.05,8.36-2.78,13.95-1.03l3.27-2.16,3.39.07v1.25s-3.22,2.19-3.22,2.19c2.07,1.02,5.48,3.12,5.48,3.12v1.25s-5.74,1.96-5.74,1.96c-.93-1.49-2.24-2.68-3.79-3.58l-5.47,3.73c3.01,2.48,6.25,5.61,1.3,9.23-3.82,2.8-10.01,3.63-16.11.86ZM169.12,431.2l4.53-3c-2.09-.52-3.67-.22-4.72.45-1.12.73-.78,1.57.19,2.55ZM166.67,439.74c1.24-.87.91-1.86-.03-2.99l-4.91,3.34c2.09.68,3.79.45,4.94-.35Z"/>
          <path class="cls-29" d="M156.82,442.19l-4.36,2.97-3.16-2.08,4.2-2.78c-2.8-2-4.44-4.42-4.44-6.32l5.89-1.8c.18,1.63,1.4,3.47,3.4,4.91l5.87-3.89c-2.58-2.38-5.06-5.03-.45-7.9,3.29-2.05,8.36-2.78,13.95-1.03l3.27-2.16,3.39,1.32-3.22,2.19c2.45,1.21,4.5,2.74,5.47,4.37l-5.73,1.96c-.93-1.49-2.24-2.68-3.79-3.58l-5.47,3.73c3.01,2.48,6.25,5.61,1.3,9.23-3.82,2.8-10.01,3.63-16.11.86ZM169.12,429.95l4.53-3c-2.09-.52-3.67-.22-4.72.45-1.12.73-.78,1.57.19,2.55ZM166.67,438.48c1.24-.87.91-1.86-.03-2.99l-4.91,3.34c2.09.68,3.79.45,4.94-.35Z"/>
        </g>
      </g>
      <g>
        <g>
          <path class="cls-31" d="M195.37,446.05c-15.3,8.78-40.06,8.72-55.31-.14-15.25-8.86-15.22-23.16.08-31.94,15.3-8.77,40.06-8.71,55.31.14,15.25,8.86,15.22,23.15-.08,31.94Z"/>
          <path class="cls-37" d="M195.38,440.54c-15.3,8.79-40.06,8.72-55.31-.14-15.25-8.86-15.22-23.16.08-31.94,15.3-8.78,40.06-8.72,55.31.14,15.25,8.86,15.22,23.16-.08,31.94Z"/>
          <path class="cls-50" d="M167.72,441.58c-8.47-.02-16.73-2-22.66-5.45-5.5-3.2-8.66-7.46-8.65-11.7.01-4.24,3.18-8.49,8.7-11.66,5.94-3.41,14.21-5.35,22.68-5.33,8.48.02,16.74,2,22.66,5.44,5.5,3.2,8.66,7.46,8.65,11.7s-3.18,8.49-8.7,11.66c-5.94,3.41-14.21,5.36-22.68,5.33Z"/>
          <path class="cls-15" d="M138.11,426.24c.01-4.24,3.18-8.49,8.7-11.66,5.94-3.41,14.21-5.35,22.68-5.33,8.48.02,16.74,2,22.66,5.44,1.68.97,3.11,2.06,4.32,3.2-1.46-1.82-3.47-3.53-6.01-5.01-5.92-3.44-14.18-5.42-22.66-5.44-8.48-.02-16.74,1.92-22.68,5.33-5.52,3.17-8.69,7.42-8.7,11.66,0,2.95,1.54,5.9,4.32,8.51-1.7-2.13-2.64-4.41-2.64-6.7Z"/>
        </g>
        <g>
          <path class="cls-9" d="M156.83,434.71l-4.36,2.97-3.16-2.08,4.2-2.78c-2.8-2-4.44-4.42-4.44-6.32v-1.25s5.89-.55,5.89-.55c.18,1.63,1.4,3.47,3.4,4.91l5.87-3.89c-2.58-2.38-5.06-5.03-.45-7.9,3.29-2.05,8.36-2.78,13.95-1.03l3.27-2.16,3.39.07v1.25s-3.22,2.19-3.22,2.19c2.07,1.02,5.48,3.12,5.48,3.12v1.25s-5.74,1.96-5.74,1.96c-.93-1.49-2.24-2.68-3.79-3.58l-5.47,3.73c3.01,2.48,6.25,5.61,1.3,9.23-3.82,2.8-10.01,3.63-16.11.86ZM169.14,422.47l4.53-3c-2.09-.52-3.67-.22-4.72.45-1.12.73-.78,1.57.19,2.55ZM166.69,431c1.24-.87.91-1.86-.03-2.99l-4.91,3.34c2.09.68,3.79.45,4.94-.35Z"/>
          <path class="cls-29" d="M156.84,433.45l-4.36,2.97-3.16-2.08,4.2-2.78c-2.8-2-4.44-4.42-4.44-6.32l5.89-1.8c.18,1.63,1.4,3.47,3.4,4.91l5.87-3.89c-2.58-2.38-5.06-5.03-.45-7.9,3.29-2.05,8.36-2.78,13.95-1.03l3.27-2.16,3.39,1.32-3.22,2.19c2.45,1.21,4.5,2.74,5.47,4.37l-5.73,1.96c-.93-1.49-2.24-2.68-3.79-3.58l-5.47,3.73c3.01,2.48,6.25,5.61,1.3,9.23-3.82,2.8-10.01,3.63-16.11.86ZM169.14,421.22l4.53-3c-2.09-.52-3.67-.22-4.72.45-1.12.73-.78,1.57.19,2.55ZM166.7,429.75c1.24-.87.91-1.86-.03-2.99l-4.91,3.34c2.09.68,3.79.45,4.94-.35Z"/>
        </g>
      </g>
    </g>
    <g>
      <g>
        <g>
          <path class="cls-31" d="M254.96,488.66c-15.3,8.78-40.06,8.72-55.31-.14-15.25-8.86-15.22-23.16.08-31.94,15.3-8.77,40.06-8.71,55.31.14,15.25,8.86,15.22,23.16-.08,31.94Z"/>
          <path class="cls-37" d="M254.97,483.15c-15.3,8.79-40.06,8.72-55.31-.14-15.25-8.86-15.22-23.16.08-31.94,15.3-8.78,40.06-8.72,55.31.14,15.25,8.86,15.22,23.16-.08,31.94Z"/>
          <path class="cls-50" d="M227.31,484.19c-8.47-.02-16.73-2-22.65-5.45-5.5-3.2-8.66-7.46-8.65-11.7.01-4.24,3.18-8.49,8.7-11.66,5.94-3.41,14.21-5.35,22.68-5.33,8.48.02,16.74,2,22.66,5.44,5.5,3.2,8.66,7.46,8.65,11.7s-3.18,8.49-8.7,11.66c-5.94,3.41-14.21,5.36-22.68,5.33Z"/>
          <path class="cls-15" d="M197.7,468.85c.01-4.24,3.18-8.49,8.7-11.66,5.94-3.41,14.21-5.35,22.68-5.33,8.48.02,16.74,2,22.66,5.44,1.68.97,3.11,2.05,4.32,3.2-1.46-1.82-3.47-3.53-6.01-5.01-5.92-3.44-14.18-5.42-22.66-5.44-8.48-.02-16.74,1.92-22.68,5.33-5.52,3.17-8.69,7.41-8.7,11.66,0,2.95,1.54,5.9,4.32,8.51-1.7-2.13-2.64-4.41-2.64-6.7Z"/>
        </g>
        <g>
          <path class="cls-9" d="M216.42,477.32l-4.36,2.97-3.16-2.08,4.2-2.78c-2.8-2-4.44-4.42-4.44-6.32v-1.25s5.89-.55,5.89-.55c.18,1.63,1.4,3.47,3.4,4.91l5.87-3.89c-2.58-2.38-5.06-5.03-.45-7.9,3.29-2.05,8.36-2.78,13.95-1.03l3.27-2.16,3.39.07v1.25s-3.22,2.19-3.22,2.19c2.07,1.02,5.48,3.12,5.48,3.12v1.25s-5.74,1.96-5.74,1.96c-.93-1.49-2.24-2.68-3.79-3.58l-5.47,3.73c3.01,2.48,6.25,5.61,1.3,9.23-3.82,2.8-10.01,3.63-16.12.86ZM228.73,465.08l4.53-3c-2.09-.52-3.67-.22-4.72.45-1.12.73-.78,1.57.19,2.55ZM226.28,473.61c1.24-.87.91-1.86-.03-2.99l-4.91,3.34c2.09.68,3.79.45,4.94-.35Z"/>
          <path class="cls-29" d="M216.43,476.06l-4.36,2.97-3.16-2.08,4.2-2.78c-2.8-2-4.44-4.42-4.44-6.32l5.89-1.8c.18,1.63,1.4,3.47,3.4,4.91l5.87-3.89c-2.58-2.38-5.06-5.03-.45-7.9,3.29-2.05,8.36-2.78,13.95-1.03l3.27-2.16,3.39,1.32-3.22,2.19c2.45,1.21,4.5,2.74,5.47,4.37l-5.73,1.96c-.93-1.49-2.24-2.68-3.79-3.58l-5.47,3.73c3.01,2.48,6.25,5.61,1.3,9.23-3.82,2.8-10.01,3.63-16.12.86ZM228.73,463.83l4.53-3c-2.09-.52-3.67-.22-4.72.45-1.12.73-.78,1.57.19,2.55ZM226.29,472.36c1.24-.87.91-1.86-.03-2.99l-4.91,3.34c2.09.68,3.79.45,4.94-.35Z"/>
        </g>
      </g>
      <g>
        <g>
          <path class="cls-31" d="M254.98,479.93c-15.3,8.78-40.06,8.72-55.31-.14-15.25-8.86-15.22-23.16.08-31.94,15.3-8.77,40.06-8.71,55.31.14,15.25,8.86,15.22,23.15-.08,31.94Z"/>
          <path class="cls-37" d="M254.99,474.42c-15.3,8.79-40.06,8.72-55.31-.14-15.25-8.86-15.22-23.16.08-31.94,15.3-8.78,40.06-8.72,55.31.14,15.25,8.86,15.22,23.16-.08,31.94Z"/>
          <path class="cls-50" d="M227.33,475.45c-8.47-.02-16.73-2-22.65-5.45-5.5-3.2-8.66-7.46-8.65-11.7.01-4.24,3.18-8.49,8.7-11.66,5.94-3.41,14.21-5.35,22.68-5.33,8.48.02,16.74,2,22.66,5.44,5.5,3.2,8.66,7.46,8.65,11.7-.01,4.24-3.18,8.49-8.7,11.66-5.94,3.41-14.21,5.36-22.68,5.33Z"/>
          <path class="cls-15" d="M197.72,460.11c.01-4.24,3.18-8.49,8.7-11.66,5.94-3.41,14.21-5.35,22.68-5.33,8.48.02,16.74,2,22.66,5.44,1.68.97,3.11,2.05,4.32,3.2-1.46-1.82-3.47-3.53-6.01-5.01-5.92-3.44-14.18-5.42-22.66-5.44-8.48-.02-16.74,1.92-22.68,5.33-5.52,3.17-8.69,7.41-8.7,11.66,0,2.95,1.54,5.9,4.32,8.51-1.7-2.13-2.64-4.42-2.64-6.7Z"/>
        </g>
        <g>
          <path class="cls-9" d="M216.45,468.58l-4.36,2.97-3.16-2.08,4.2-2.78c-2.8-2-4.44-4.42-4.44-6.32v-1.25s5.89-.55,5.89-.55c.18,1.63,1.4,3.47,3.4,4.91l5.87-3.89c-2.58-2.38-5.06-5.03-.45-7.9,3.29-2.05,8.36-2.78,13.95-1.03l3.27-2.16,3.39.07v1.25s-3.22,2.19-3.22,2.19c2.07,1.02,5.48,3.12,5.48,3.12v1.25s-5.74,1.96-5.74,1.96c-.93-1.49-2.24-2.68-3.79-3.58l-5.47,3.73c3.01,2.48,6.25,5.61,1.3,9.23-3.82,2.8-10.01,3.63-16.12.86ZM228.75,456.34l4.53-3c-2.09-.52-3.67-.22-4.72.45-1.12.73-.78,1.57.19,2.55ZM226.31,464.88c1.24-.87.91-1.86-.03-2.99l-4.91,3.34c2.09.68,3.79.45,4.94-.35Z"/>
          <path class="cls-29" d="M216.45,467.33l-4.36,2.97-3.16-2.08,4.2-2.78c-2.8-2-4.44-4.42-4.44-6.32l5.89-1.8c.18,1.63,1.4,3.47,3.4,4.91l5.87-3.89c-2.58-2.38-5.06-5.03-.45-7.9,3.29-2.05,8.36-2.78,13.95-1.03l3.27-2.16,3.39,1.32-3.22,2.19c2.45,1.21,4.5,2.74,5.47,4.37l-5.73,1.96c-.93-1.49-2.24-2.68-3.79-3.58l-5.47,3.73c3.01,2.48,6.25,5.61,1.3,9.23-3.82,2.8-10.01,3.62-16.12.86ZM228.76,455.09l4.53-3c-2.09-.52-3.67-.22-4.72.45-1.12.73-.78,1.57.19,2.55ZM226.31,463.62c1.24-.87.91-1.86-.03-2.99l-4.91,3.34c2.09.68,3.79.45,4.94-.35Z"/>
        </g>
      </g>
      <g>
        <g>
          <path class="cls-31" d="M255,471.19c-15.3,8.78-40.06,8.72-55.31-.14-15.25-8.86-15.22-23.16.08-31.94,15.3-8.77,40.06-8.71,55.31.14,15.25,8.86,15.22,23.15-.08,31.94Z"/>
          <path class="cls-37" d="M255.01,465.69c-15.3,8.79-40.06,8.72-55.31-.14-15.25-8.86-15.22-23.16.08-31.94,15.3-8.78,40.06-8.72,55.31.14,15.25,8.86,15.22,23.16-.08,31.94Z"/>
          <path class="cls-50" d="M227.36,466.72c-8.47-.02-16.73-2-22.66-5.45-5.5-3.2-8.66-7.46-8.65-11.7.01-4.24,3.18-8.49,8.7-11.66,5.94-3.41,14.21-5.35,22.68-5.33,8.48.02,16.74,2,22.66,5.44,5.5,3.2,8.66,7.46,8.65,11.7-.01,4.24-3.18,8.49-8.7,11.66-5.94,3.41-14.21,5.36-22.68,5.33Z"/>
          <path class="cls-15" d="M197.74,451.38c.01-4.24,3.18-8.49,8.7-11.66,5.94-3.41,14.21-5.35,22.68-5.33,8.48.02,16.74,2,22.66,5.44,1.68.97,3.11,2.06,4.32,3.2-1.46-1.82-3.47-3.53-6.01-5.01-5.92-3.44-14.18-5.42-22.66-5.44-8.48-.02-16.74,1.92-22.68,5.33-5.52,3.17-8.69,7.42-8.7,11.66,0,2.95,1.54,5.9,4.32,8.51-1.7-2.13-2.64-4.41-2.64-6.7Z"/>
        </g>
        <g>
          <path class="cls-9" d="M216.47,459.85l-4.36,2.97-3.16-2.08,4.2-2.78c-2.8-2-4.44-4.42-4.44-6.32v-1.25s5.89-.55,5.89-.55c.18,1.63,1.4,3.47,3.4,4.91l5.87-3.89c-2.58-2.38-5.06-5.03-.45-7.9,3.29-2.05,8.36-2.78,13.95-1.03l3.27-2.16,3.39.07v1.25s-3.22,2.19-3.22,2.19c2.07,1.02,5.48,3.12,5.48,3.12v1.25s-5.74,1.96-5.74,1.96c-.93-1.49-2.24-2.68-3.79-3.58l-5.47,3.73c3.01,2.48,6.25,5.61,1.3,9.23-3.82,2.8-10.01,3.63-16.11.86ZM228.77,447.61l4.53-3c-2.09-.52-3.67-.22-4.72.45-1.12.73-.78,1.57.19,2.55ZM226.33,456.14c1.24-.87.91-1.86-.03-2.99l-4.91,3.34c2.09.68,3.79.45,4.94-.35Z"/>
          <path class="cls-29" d="M216.47,458.59l-4.36,2.97-3.16-2.08,4.2-2.78c-2.8-2-4.44-4.42-4.44-6.32l5.89-1.8c.18,1.63,1.4,3.47,3.4,4.91l5.87-3.89c-2.58-2.38-5.06-5.03-.45-7.9,3.29-2.05,8.36-2.78,13.95-1.03l3.27-2.16,3.39,1.32-3.22,2.19c2.45,1.21,4.5,2.74,5.47,4.37l-5.73,1.96c-.93-1.49-2.24-2.68-3.79-3.58l-5.47,3.73c3.01,2.48,6.25,5.61,1.3,9.23-3.82,2.8-10.01,3.63-16.11.86ZM228.78,446.36l4.53-3c-2.09-.52-3.67-.22-4.72.45-1.12.73-.78,1.57.19,2.55ZM226.33,454.89c1.24-.87.91-1.86-.03-2.99l-4.91,3.34c2.09.68,3.79.45,4.94-.35Z"/>
        </g>
      </g>
      <g>
        <g>
          <path class="cls-31" d="M255.02,462.46c-15.3,8.78-40.06,8.71-55.31-.14-15.25-8.86-15.22-23.16.08-31.94,15.3-8.77,40.06-8.71,55.31.14,15.25,8.86,15.22,23.16-.08,31.94Z"/>
          <path class="cls-37" d="M255.04,456.95c-15.3,8.79-40.06,8.72-55.31-.14-15.25-8.86-15.22-23.16.08-31.94,15.3-8.78,40.06-8.72,55.31.14,15.25,8.86,15.22,23.16-.08,31.94Z"/>
          <path class="cls-50" d="M227.38,457.98c-8.47-.02-16.73-2-22.65-5.45-5.5-3.2-8.66-7.46-8.65-11.7.01-4.24,3.18-8.49,8.7-11.66,5.94-3.41,14.21-5.35,22.68-5.33,8.48.02,16.74,2,22.66,5.44,5.5,3.2,8.66,7.46,8.65,11.7-.01,4.24-3.18,8.49-8.7,11.66-5.94,3.41-14.21,5.35-22.69,5.33Z"/>
          <path class="cls-15" d="M197.76,442.64c.01-4.24,3.18-8.49,8.7-11.66,5.94-3.41,14.21-5.35,22.68-5.33,8.48.02,16.74,2,22.66,5.44,1.68.97,3.11,2.05,4.32,3.2-1.46-1.82-3.47-3.53-6.01-5.01-5.92-3.44-14.18-5.42-22.66-5.44-8.48-.02-16.74,1.92-22.68,5.33-5.52,3.17-8.69,7.41-8.7,11.66,0,2.95,1.54,5.9,4.32,8.51-1.7-2.13-2.64-4.41-2.64-6.7Z"/>
        </g>
        <g>
          <path class="cls-9" d="M216.49,451.11l-4.36,2.97-3.16-2.08,4.2-2.78c-2.8-2-4.44-4.42-4.44-6.32v-1.25s5.89-.55,5.89-.55c.18,1.63,1.4,3.47,3.4,4.91l5.87-3.89c-2.58-2.38-5.06-5.03-.45-7.9,3.29-2.05,8.36-2.78,13.95-1.03l3.27-2.16,3.39.07v1.25s-3.22,2.19-3.22,2.19c2.07,1.02,5.48,3.12,5.48,3.12v1.25s-5.74,1.96-5.74,1.96c-.93-1.49-2.24-2.68-3.79-3.58l-5.47,3.73c3.01,2.48,6.25,5.61,1.3,9.23-3.82,2.8-10.01,3.63-16.11.86ZM228.8,438.87l4.53-3c-2.09-.52-3.67-.22-4.72.45-1.12.73-.78,1.57.19,2.55ZM226.35,447.41c1.24-.87.91-1.86-.03-2.99l-4.91,3.34c2.09.68,3.79.45,4.94-.35Z"/>
          <path class="cls-29" d="M216.49,449.86l-4.36,2.97-3.16-2.08,4.2-2.78c-2.8-2-4.44-4.42-4.44-6.32l5.89-1.8c.18,1.63,1.4,3.47,3.4,4.91l5.87-3.89c-2.58-2.38-5.06-5.03-.45-7.9,3.29-2.05,8.36-2.78,13.95-1.03l3.27-2.16,3.39,1.32-3.22,2.19c2.45,1.21,4.5,2.74,5.47,4.37l-5.73,1.96c-.93-1.49-2.24-2.68-3.79-3.58l-5.47,3.73c3.01,2.48,6.25,5.61,1.3,9.23-3.82,2.8-10.01,3.63-16.11.86ZM228.8,437.62l4.53-3c-2.09-.52-3.67-.22-4.72.45-1.12.73-.78,1.57.19,2.55ZM226.35,446.15c1.24-.87.91-1.86-.03-2.99l-4.91,3.34c2.09.68,3.79.45,4.94-.35Z"/>
        </g>
      </g>
      <g>
        <g>
          <path class="cls-31" d="M255.04,453.72c-15.3,8.78-40.06,8.72-55.31-.14-15.25-8.86-15.22-23.16.08-31.94,15.3-8.77,40.06-8.71,55.31.14,15.25,8.86,15.22,23.15-.08,31.94Z"/>
          <path class="cls-37" d="M255.06,448.22c-15.3,8.79-40.06,8.72-55.31-.14-15.25-8.86-15.22-23.16.08-31.94,15.3-8.78,40.06-8.72,55.31.14,15.25,8.86,15.22,23.16-.08,31.94Z"/>
          <path class="cls-50" d="M227.4,449.25c-8.47-.02-16.73-2-22.65-5.45-5.5-3.2-8.66-7.46-8.65-11.7.01-4.24,3.18-8.49,8.7-11.66,5.94-3.41,14.21-5.35,22.68-5.33,8.48.02,16.74,2,22.66,5.44,5.5,3.2,8.66,7.46,8.65,11.7-.01,4.24-3.18,8.49-8.7,11.66-5.94,3.41-14.21,5.36-22.68,5.33Z"/>
          <path class="cls-15" d="M197.79,433.91c.01-4.24,3.18-8.49,8.7-11.66,5.94-3.41,14.21-5.35,22.68-5.33,8.48.02,16.74,2,22.66,5.44,1.68.97,3.11,2.05,4.32,3.2-1.46-1.82-3.47-3.53-6.01-5.01-5.92-3.44-14.18-5.42-22.66-5.44-8.48-.02-16.74,1.92-22.68,5.33-5.52,3.17-8.69,7.42-8.7,11.66,0,2.95,1.54,5.9,4.32,8.51-1.7-2.13-2.64-4.41-2.64-6.7Z"/>
        </g>
        <g>
          <path class="cls-9" d="M216.51,442.38l-4.36,2.97-3.16-2.08,4.2-2.78c-2.8-2-4.44-4.42-4.44-6.32v-1.25s5.89-.55,5.89-.55c.18,1.63,1.4,3.47,3.4,4.91l5.87-3.89c-2.58-2.38-5.06-5.03-.45-7.9,3.29-2.05,8.36-2.78,13.95-1.03l3.27-2.16,3.39.07v1.25s-3.22,2.19-3.22,2.19c2.07,1.02,5.48,3.12,5.48,3.12v1.25s-5.74,1.96-5.74,1.96c-.93-1.49-2.24-2.68-3.79-3.58l-5.47,3.73c3.01,2.48,6.25,5.61,1.3,9.23-3.82,2.8-10.01,3.63-16.12.86ZM228.82,430.14l4.53-3c-2.09-.52-3.67-.22-4.72.45-1.12.73-.78,1.57.19,2.55ZM226.37,438.67c1.24-.87.91-1.86-.03-2.99l-4.91,3.34c2.09.68,3.79.45,4.94-.35Z"/>
          <path class="cls-29" d="M216.52,441.13l-4.36,2.97-3.16-2.08,4.2-2.78c-2.8-2-4.44-4.42-4.44-6.32l5.89-1.8c.18,1.63,1.4,3.47,3.4,4.91l5.87-3.89c-2.58-2.38-5.06-5.03-.45-7.9,3.29-2.05,8.36-2.78,13.95-1.03l3.27-2.16,3.39,1.32-3.22,2.19c2.45,1.21,4.5,2.74,5.47,4.37l-5.73,1.96c-.93-1.49-2.24-2.68-3.79-3.58l-5.47,3.73c3.01,2.48,6.25,5.61,1.3,9.23-3.82,2.8-10.01,3.63-16.12.86ZM228.82,428.89l4.53-3c-2.09-.52-3.67-.22-4.72.45-1.12.73-.78,1.57.19,2.55ZM226.37,437.42c1.24-.87.91-1.86-.03-2.99l-4.91,3.34c2.09.68,3.79.45,4.94-.35Z"/>
        </g>
      </g>
      <g>
        <g>
          <path class="cls-31" d="M255.07,444.99c-15.3,8.78-40.06,8.72-55.31-.14-15.25-8.86-15.22-23.16.08-31.94,15.3-8.77,40.06-8.71,55.31.14,15.25,8.86,15.22,23.16-.08,31.94Z"/>
          <path class="cls-37" d="M255.08,439.48c-15.3,8.79-40.06,8.72-55.31-.14-15.25-8.86-15.22-23.16.08-31.94,15.3-8.78,40.06-8.72,55.31.14,15.25,8.86,15.22,23.16-.08,31.94Z"/>
          <path class="cls-50" d="M227.42,440.51c-8.47-.02-16.73-2-22.66-5.45-5.5-3.2-8.66-7.46-8.65-11.7.01-4.24,3.18-8.49,8.7-11.66,5.94-3.41,14.21-5.35,22.68-5.33,8.48.02,16.74,2,22.66,5.44,5.5,3.2,8.66,7.46,8.65,11.7-.01,4.24-3.18,8.49-8.7,11.66-5.94,3.41-14.21,5.36-22.68,5.33Z"/>
          <path class="cls-15" d="M197.81,425.17c.01-4.24,3.18-8.49,8.7-11.66,5.94-3.41,14.21-5.35,22.68-5.33,8.48.02,16.74,2,22.66,5.44,1.68.97,3.11,2.06,4.32,3.2-1.46-1.82-3.47-3.53-6.01-5.01-5.92-3.44-14.18-5.42-22.66-5.44-8.48-.02-16.74,1.92-22.68,5.33-5.52,3.17-8.69,7.41-8.7,11.66,0,2.95,1.54,5.9,4.32,8.51-1.7-2.13-2.64-4.41-2.64-6.7Z"/>
        </g>
        <g>
          <path class="cls-9" d="M216.53,433.64l-4.36,2.97-3.16-2.08,4.2-2.78c-2.8-2-4.44-4.42-4.44-6.32v-1.25s5.89-.55,5.89-.55c.18,1.63,1.4,3.47,3.4,4.91l5.87-3.89c-2.58-2.38-5.06-5.03-.45-7.9,3.29-2.05,8.36-2.78,13.95-1.03l3.27-2.16,3.39.07v1.25s-3.22,2.19-3.22,2.19c2.07,1.02,5.48,3.12,5.48,3.12v1.25s-5.74,1.96-5.74,1.96c-.93-1.49-2.24-2.68-3.79-3.58l-5.47,3.73c3.01,2.48,6.25,5.61,1.3,9.23-3.82,2.8-10.01,3.62-16.12.86ZM228.84,421.41l4.53-3c-2.09-.52-3.67-.22-4.72.45-1.12.73-.78,1.57.19,2.55ZM226.39,429.94c1.24-.87.91-1.86-.03-2.99l-4.91,3.34c2.09.68,3.79.45,4.94-.35Z"/>
          <path class="cls-29" d="M216.54,432.39l-4.36,2.97-3.16-2.08,4.2-2.78c-2.8-2-4.44-4.42-4.44-6.32l5.89-1.8c.18,1.63,1.4,3.47,3.4,4.91l5.87-3.89c-2.58-2.38-5.06-5.03-.45-7.9,3.29-2.05,8.36-2.78,13.95-1.03l3.27-2.16,3.39,1.32-3.22,2.19c2.45,1.21,4.5,2.74,5.47,4.37l-5.73,1.96c-.93-1.49-2.24-2.68-3.79-3.58l-5.47,3.73c3.01,2.48,6.25,5.61,1.3,9.23-3.82,2.8-10.01,3.63-16.12.86ZM228.84,420.15l4.53-3c-2.09-.52-3.67-.22-4.72.45-1.12.73-.78,1.57.19,2.55ZM226.4,428.68c1.24-.87.91-1.86-.03-2.99l-4.91,3.34c2.09.68,3.79.45,4.94-.35Z"/>
        </g>
      </g>
      <g>
        <g>
          <path class="cls-31" d="M255.09,436.25c-15.3,8.78-40.06,8.72-55.31-.14-15.25-8.86-15.22-23.16.08-31.94,15.3-8.77,40.06-8.71,55.31.14,15.25,8.86,15.22,23.15-.08,31.94Z"/>
          <path class="cls-37" d="M255.1,430.75c-15.3,8.79-40.06,8.72-55.31-.14-15.25-8.86-15.22-23.16.08-31.94,15.3-8.78,40.06-8.72,55.31.14,15.25,8.86,15.22,23.16-.08,31.94Z"/>
          <path class="cls-50" d="M227.44,431.78c-8.47-.02-16.73-2-22.65-5.45-5.5-3.2-8.66-7.46-8.65-11.7.01-4.24,3.18-8.49,8.7-11.66,5.94-3.41,14.21-5.35,22.68-5.33,8.48.02,16.74,2,22.66,5.44,5.5,3.2,8.66,7.46,8.65,11.7-.01,4.24-3.18,8.49-8.7,11.66-5.94,3.41-14.21,5.35-22.68,5.33Z"/>
          <path class="cls-15" d="M197.83,416.44c.01-4.24,3.18-8.49,8.7-11.66,5.94-3.41,14.21-5.35,22.68-5.33,8.48.02,16.74,2,22.66,5.44,1.68.97,3.11,2.05,4.32,3.2-1.46-1.82-3.47-3.53-6.01-5.01-5.92-3.44-14.18-5.42-22.66-5.44-8.48-.02-16.74,1.92-22.68,5.33-5.52,3.17-8.69,7.41-8.7,11.66,0,2.95,1.54,5.9,4.32,8.51-1.7-2.13-2.64-4.42-2.64-6.7Z"/>
        </g>
        <g>
          <path class="cls-9" d="M216.56,424.91l-4.36,2.97-3.16-2.08,4.2-2.78c-2.8-2-4.44-4.42-4.44-6.32v-1.25s5.89-.55,5.89-.55c.18,1.63,1.4,3.47,3.4,4.91l5.87-3.89c-2.58-2.38-5.06-5.03-.45-7.9,3.29-2.05,8.36-2.78,13.95-1.03l3.27-2.16,3.39.07v1.25s-3.22,2.19-3.22,2.19c2.07,1.02,5.48,3.12,5.48,3.12v1.25s-5.74,1.96-5.74,1.96c-.93-1.49-2.24-2.68-3.79-3.58l-5.47,3.73c3.01,2.48,6.25,5.61,1.3,9.23-3.82,2.8-10.01,3.62-16.11.86ZM228.86,412.67l4.53-3c-2.09-.52-3.67-.22-4.72.45-1.12.73-.78,1.57.19,2.55ZM226.42,421.2c1.24-.87.91-1.86-.03-2.99l-4.91,3.34c2.09.68,3.79.45,4.94-.35Z"/>
          <path class="cls-29" d="M216.56,423.66l-4.36,2.97-3.16-2.08,4.2-2.78c-2.8-2-4.44-4.42-4.44-6.32l5.89-1.8c.18,1.63,1.4,3.47,3.4,4.91l5.87-3.89c-2.58-2.38-5.06-5.03-.45-7.9,3.29-2.05,8.36-2.78,13.95-1.03l3.27-2.16,3.39,1.32-3.22,2.19c2.45,1.21,4.5,2.74,5.47,4.37l-5.73,1.96c-.93-1.49-2.24-2.68-3.79-3.58l-5.47,3.73c3.01,2.48,6.25,5.61,1.3,9.23-3.82,2.8-10.01,3.63-16.11.86ZM228.87,411.42l4.53-3c-2.09-.52-3.67-.22-4.72.45-1.12.73-.78,1.57.19,2.55ZM226.42,419.95c1.24-.87.91-1.86-.03-2.99l-4.91,3.34c2.09.68,3.79.45,4.94-.35Z"/>
        </g>
      </g>
    </g>
  </g>
  <g>
    <polygon class="cls-7" points="26.55 305.11 23.38 332.23 26.32 395.46 88.82 361.66 83.09 273.63 26.55 305.11"/>
    <path class="cls-30" d="M73.24,319.28c2.91,5.42-2.79,14.14-12.72,19.47s-20.35,5.26-23.26-.15c-2.91-5.42,2.79-14.14,12.72-19.47,9.94-5.33,20.35-5.26,23.26.15Z"/>
    <polygon class="cls-45" points="27.08 305.11 11.74 296.64 9.8 347.09 9.71 383.97 26.85 395.46 27.08 305.11"/>
    <polygon class="cls-7" points="27.08 305.11 18.48 309.28 11.74 296.64 27.08 305.11"/>
    <g>
      <polygon class="cls-30" points="9.71 383.97 18.31 379.34 26.85 395.46 9.71 383.97"/>
      <polygon class="cls-30" points="20.95 384.32 18.47 315.69 15.56 380.82 20.95 384.32"/>
    </g>
    <path class="cls-1" d="M27.94,296.68l.06-24.21c.01-5.4,4.44-12.16,9.89-15.08s9.86-.91,9.84,4.5v-.81s-.06,24.21-.06,24.21"/>
    <polygon class="cls-30" points="83.62 273.64 66.03 264.56 11.74 296.64 27.08 305.11 83.62 273.64"/>
    <polygon class="cls-45" points="66.05 264.57 66.01 283.44 83.62 273.64 66.05 264.57"/>
    <path class="cls-1" d="M43.38,305.16l.06-24.21c.01-5.4,4.44-12.16,9.89-15.08s9.86-.91,9.84,4.5v-.81s-.06,24.21-.06,24.21"/>
  </g>
</svg>